<svg xmlns="http://www.w3.org/2000/svg" width="303" height="130" viewBox="0 0 303 130"><g fill="#121E47" fill-rule="evenodd"><path d="M182.321 82.641h-6.955c-8.437-.075-16.144-3.263-22.078-8.435a36.472 36.472 0 0 0 10.56-24.49h24.746v-2.43h-24.745a36.459 36.459 0 0 0-10.561-24.492c5.93-5.169 13.63-8.356 22.058-8.435h6.975c9.335 8.437 15.247 20.597 15.247 34.141 0 13.544-5.912 25.704-15.247 34.141zm-20.904-32.924a34.03 34.03 0 0 1-9.923 22.842c-6.163-6.186-9.984-14.701-9.984-24.06 0-9.358 3.82-17.873 9.984-24.059a34.029 34.029 0 0 1 9.923 22.846H151.5v2.43h9.916zM151.5 94.568c-10.493 0-20.148-3.565-27.901-9.495h4.021v-2.432h-6.942c-9.335-8.437-15.247-20.597-15.247-34.14 0-13.545 5.912-25.705 15.247-34.142h6.942v-2.432H123.6c7.753-5.93 17.408-9.495 27.9-9.495 10.493 0 20.146 3.565 27.9 9.495h-4.448l.003.02c-8.98.176-17.17 3.632-23.461 9.2-6.383-5.649-14.738-9.14-23.873-9.22l.002 2.431c8.437.074 16.143 3.263 22.078 8.436-6.561 6.62-10.624 15.716-10.624 25.705 0 9.99 4.063 19.084 10.624 25.707-5.935 5.172-13.641 8.36-22.078 8.435l-.002 2.432c9.135-.08 17.49-3.572 23.873-9.22 6.238 5.519 14.341 8.956 23.23 9.186l-.009.034h4.686c-7.755 5.93-17.408 9.495-27.9 9.495zM151.5 0C124.756 0 103 21.756 103 48.5S124.756 97 151.5 97 200 75.244 200 48.5 178.244 0 151.5 0zM7.527 129.81c1.117 0 2.144-.174 3.08-.522.938-.347 1.744-.832 2.416-1.453a6.447 6.447 0 0 0 1.57-2.23c.372-.867.559-1.82.559-2.857 0-1.09-.2-2.096-.596-3.02a7.121 7.121 0 0 0-1.666-2.392 7.738 7.738 0 0 0-2.542-1.576c-.982-.38-2.051-.57-3.206-.57H.384v.722c.41.025.745.066 1.002.123.256.057.452.165.587.323.134.158.224.373.269.645.045.273.068.63.068 1.073v8.849c0 .455-.03.82-.088 1.091-.057.273-.17.488-.335.645-.168.159-.402.266-.703.323A7.736 7.736 0 0 1 0 129.09v.721h7.527zm-.423-13.69c.86 0 1.63.153 2.31.455.68.304 1.26.741 1.742 1.31.481.571.85 1.267 1.107 2.09.257.822.385 1.759.385 2.81 0 2-.468 3.516-1.405 4.548s-2.284 1.547-4.044 1.547c-1.912 0-2.867-.721-2.867-2.164v-10.272c0-.215.108-.324.327-.324h2.445zm17.79.21c0-.216.108-.324.327-.324h2.445c.654 0 1.213.038 1.675.114.462.077.843.21 1.146.399.301.19.539.446.712.769.173.323.299.738.375 1.244h.674l-.173-3.342H20.947v.722c.41.025.744.066 1.001.123.256.057.452.165.587.323.136.158.224.373.269.645.045.273.068.63.068 1.073v8.849c0 .443-.026.803-.077 1.081-.052.279-.155.494-.308.646-.153.152-.37.26-.645.323-.276.064-.639.101-1.088.114v.721H32.71l.289-3.74h-.732c-.128.557-.288 1.022-.48 1.396a2.49 2.49 0 0 1-.77.901c-.321.228-.72.39-1.195.485-.475.094-1.053.142-1.733.142a9.32 9.32 0 0 1-1.52-.105c-.412-.07-.742-.19-.992-.36a1.37 1.37 0 0 1-.529-.665c-.104-.272-.154-.617-.154-1.035v-4.291c.718 0 1.312.048 1.78.142.47.096.84.235 1.118.418.275.184.467.415.577.693.108.279.163.608.163.988h.674v-5.184h-.674c0 .38-.061.71-.183.987-.121.28-.321.507-.597.684-.275.178-.647.307-1.115.39-.47.082-1.05.123-1.743.123v-5.45zM52.234 130v-11.354c0-.583.024-1.05.076-1.406.051-.354.153-.626.307-.816.155-.19.37-.32.645-.389.276-.07.639-.11 1.089-.123v-.722h-5.18v.722c.41.013.742.05.992.114s.442.196.577.398c.136.203.225.491.27.864.045.373.067.871.067 1.49v7.482H51l-8.413-11.07h-3.812v.722c.41.025.745.078 1 .16.258.084.453.226.588.429.135.202.225.478.27.825.044.348.067.789.067 1.32v7.709c0 .595-.025 1.066-.078 1.415-.05.348-.153.617-.307.806-.154.19-.369.32-.645.39-.277.069-.639.11-1.088.123v.721h5.18v-.721a4.772 4.772 0 0 1-.992-.114.941.941 0 0 1-.577-.399c-.136-.202-.225-.487-.27-.854a13.088 13.088 0 0 1-.067-1.5v-8.107h.077L51.077 130h1.156zm21.639-14.81H59.337v3.627h.712c.013-.67.115-1.197.308-1.577.193-.379.446-.66.76-.844a2.64 2.64 0 0 1 1.117-.332c.43-.038.896-.058 1.396-.058.411 0 .738.01.982.03.244.018.434.054.569.104.134.05.224.11.269.18.044.07.066.161.066.275v10.158c0 .405-.029.754-.086 1.045a1.401 1.401 0 0 1-.346.711c-.174.185-.428.323-.76.418-.335.096-.771.149-1.31.162v.721h7.277v-.721c-.539-.013-.972-.066-1.299-.162-.327-.095-.577-.233-.75-.418a1.407 1.407 0 0 1-.347-.711 5.473 5.473 0 0 1-.086-1.045v-10.158c0-.114.022-.205.067-.275.045-.07.144-.13.297-.18.155-.05.377-.086.665-.105.289-.02.67-.029 1.145-.029a6.63 6.63 0 0 1 1.426.134c.397.089.728.237.991.446.263.208.466.497.606.864.142.366.23.822.27 1.367h.79l-.193-3.627zm13.15 11.374c.09.215.163.402.222.56.057.159.102.3.133.427a2.686 2.686 0 0 1 .088.702.65.65 0 0 1-.386.627c-.257.127-.725.19-1.406.19v.74h6.277v-.74c-.334 0-.619-.031-.856-.095a1.434 1.434 0 0 1-.665-.418c-.206-.215-.417-.535-.635-.959-.218-.424-.476-.99-.77-1.699l-4.37-10.709h-.829l-5.005 12.36a4.34 4.34 0 0 1-.357.674 1.692 1.692 0 0 1-.424.447 1.9 1.9 0 0 1-.557.266 4.864 4.864 0 0 1-.76.152v.721H81.4v-.721c-.538 0-.924-.066-1.155-.2-.23-.133-.346-.376-.346-.73 0-.127.02-.292.058-.494.037-.203.106-.45.202-.74.097-.292.221-.637.375-1.036.154-.398.34-.857.558-1.376h5.141l.79 2.05zm-3.294-8.602 2.139 5.601h-4.39l2.251-5.601zm25.415 8.108h-.732c-.14.596-.312 1.079-.51 1.452-.2.374-.469.665-.809.873-.34.21-.76.355-1.26.437-.502.083-1.118.124-1.85.124-.667 0-1.219-.035-1.655-.104-.436-.07-.785-.197-1.049-.38a1.466 1.466 0 0 1-.558-.779c-.11-.334-.165-.768-.165-1.3v-8.184c0-.48.024-.867.069-1.159.045-.29.134-.517.268-.682.136-.165.328-.278.58-.342.248-.064.58-.101.99-.114v-.722H96.61v.722c.41.025.745.066 1.002.123.256.057.452.165.587.323.134.158.224.373.268.645.046.273.069.63.069 1.073v8.849c0 .443-.027.803-.078 1.081-.05.279-.153.494-.308.646-.153.152-.369.26-.645.323-.276.064-.638.101-1.087.114v.721h12.438l.288-3.74zm18.059-9.74c0-.216.109-.324.327-.324h2.445c.654 0 1.213.038 1.675.114.462.077.844.21 1.146.399.301.19.539.446.712.769.173.323.299.738.375 1.244h.674l-.173-3.342h-11.127v.722c.41.025.743.066 1 .123.256.057.452.165.587.323.136.158.224.373.269.645.045.273.068.63.068 1.073v8.849c0 .443-.026.803-.077 1.081-.052.279-.153.494-.308.646-.153.152-.37.26-.645.323-.276.064-.638.101-1.088.114v.721h11.956l.289-3.74h-.732c-.128.557-.288 1.022-.48 1.396-.194.373-.45.673-.77.901-.321.228-.72.39-1.195.485-.475.094-1.052.142-1.733.142a9.32 9.32 0 0 1-1.52-.105c-.412-.07-.742-.19-.992-.36a1.37 1.37 0 0 1-.529-.665c-.103-.272-.154-.617-.154-1.035v-4.291c.719 0 1.312.048 1.78.142.47.096.84.235 1.118.418.275.184.467.415.577.693.108.279.163.608.163.988h.675v-5.184h-.675c0 .38-.06.71-.183.987-.121.28-.321.507-.597.684-.275.178-.647.307-1.115.39-.47.082-1.05.123-1.743.123v-5.45zm21.774 5.486 3.061-3.892c.348-.443.642-.797.887-1.063.243-.266.467-.469.674-.608.204-.139.42-.23.644-.275.225-.044.492-.066.8-.066v-.722h-5.295v.722c.538 0 .915.06 1.126.18.212.12.317.34.317.656 0 .252-.07.518-.211.796-.142.28-.392.64-.751 1.083l-1.886 2.354-2.1-3.076c-.359-.52-.538-.937-.538-1.253 0-.493.417-.74 1.252-.74v-.722h-6.392v.722c.551 0 1.026.098 1.424.294.398.197.757.515 1.078.96l3.908 5.258-3.773 4.746a10.74 10.74 0 0 1-.818.921c-.25.248-.498.444-.742.59-.244.145-.491.25-.74.313-.251.064-.53.095-.838.095v.721h5.352v-.721c-.604 0-1.013-.035-1.232-.105-.22-.07-.328-.2-.328-.39 0-.113.036-.252.106-.417a4.78 4.78 0 0 1 .347-.626c.16-.253.375-.557.645-.912.269-.354.603-.779 1-1.272l1.657-2.05 2.194 3.227c.218.33.391.596.52.798.129.203.228.374.298.513.07.139.116.256.135.35.02.096.03.188.03.276 0 .19-.107.339-.318.446-.213.108-.607.162-1.184.162v.721h6.565v-.721c-.963 0-1.778-.448-2.445-1.348l-4.429-5.925zm22.911-5.448c-.795-.481-1.534-.83-2.213-1.045a7.184 7.184 0 0 0-2.176-.323c-1.09 0-2.09.187-2.994.56a6.668 6.668 0 0 0-2.33 1.586 7.219 7.219 0 0 0-1.511 2.45c-.36.949-.54 2-.54 3.152 0 1.1.17 2.1.511 2.999.34.9.822 1.662 1.444 2.288a6.397 6.397 0 0 0 2.253 1.452c.88.343 1.864.513 2.955.513 1.912 0 3.543-.563 4.89-1.69l.443 1.5h.674v-4.728h-.79c-.706 2.595-2.297 3.893-4.774 3.893-1.63 0-2.875-.547-3.735-1.642-.86-1.096-1.29-2.662-1.29-4.7 0-1.037.112-1.967.336-2.79.225-.824.55-1.52.974-2.089a4.276 4.276 0 0 1 1.558-1.31c.617-.304 1.317-.456 2.1-.456 1.141 0 2.117.315 2.926.948.808.634 1.354 1.508 1.635 2.62h.714l-.173-4.366h-.54l-.347 1.178zm11.378-.038c0-.216.11-.324.328-.324h2.444c.656 0 1.214.038 1.677.114.462.077.843.21 1.145.399.3.19.538.446.712.769.173.323.299.738.376 1.244h.673l-.174-3.342H179.32v.722c.411.025.745.066 1 .123.258.057.454.165.588.323.135.158.225.373.27.645.044.273.067.63.067 1.073v8.849c0 .443-.026.803-.077 1.081-.05.279-.154.494-.308.646-.154.152-.37.26-.645.323-.276.064-.639.101-1.087.114v.721h11.956l.288-3.74h-.731c-.128.557-.289 1.022-.481 1.396-.194.373-.45.673-.77.901-.322.228-.72.39-1.194.485-.475.094-1.052.142-1.733.142a9.31 9.31 0 0 1-1.52-.105c-.412-.07-.743-.19-.992-.36a1.381 1.381 0 0 1-.53-.665c-.103-.272-.155-.617-.155-1.035v-4.291c.72 0 1.313.048 1.781.142.469.096.841.235 1.118.418.276.184.468.415.576.693.11.279.165.608.165.988h.674v-5.184h-.674c0 .38-.062.71-.183.987a1.54 1.54 0 0 1-.597.684c-.276.178-.648.307-1.117.39-.469.082-1.049.123-1.743.123v-5.45zm26.416 9.74h-.731c-.142.596-.312 1.079-.512 1.452a2.23 2.23 0 0 1-.808.873c-.34.21-.76.355-1.26.437-.5.083-1.117.124-1.849.124-.667 0-1.22-.035-1.657-.104-.436-.07-.785-.197-1.049-.38a1.465 1.465 0 0 1-.557-.779c-.11-.334-.164-.768-.164-1.3v-8.184c0-.48.022-.867.067-1.159.045-.29.135-.517.27-.682.134-.165.327-.278.578-.342.25-.064.58-.101.991-.114v-.722h-5.853v.722c.41.025.744.066 1.002.123.256.057.452.165.586.323.135.158.225.373.27.645.045.273.067.63.067 1.073v8.849c0 .443-.025.803-.076 1.081-.052.279-.155.494-.308.646-.155.152-.37.26-.645.323-.276.064-.64.101-1.089.114v.721h12.438l.289-3.74zm17.847 0h-.732c-.14.596-.31 1.079-.51 1.452a2.23 2.23 0 0 1-.808.873c-.34.21-.76.355-1.262.437-.5.083-1.116.124-1.848.124-.667 0-1.22-.035-1.656-.104-.436-.07-.786-.197-1.05-.38a1.47 1.47 0 0 1-.557-.779c-.11-.334-.163-.768-.163-1.3v-8.184c0-.48.022-.867.066-1.159.046-.29.135-.517.27-.682.135-.165.327-.278.578-.342.25-.064.58-.101.991-.114v-.722h-5.853v.722c.411.025.745.066 1.002.123.256.057.451.165.586.323.135.158.225.373.27.645.045.273.067.63.067 1.073v8.849c0 .443-.025.803-.077 1.081-.05.279-.154.494-.307.646-.155.152-.37.26-.645.323-.276.064-.64.101-1.088.114v.721h12.437l.289-3.74zm9.261-9.74c0-.216.108-.324.326-.324h2.446c.655 0 1.214.038 1.675.114.462.077.844.21 1.145.399.302.19.539.446.714.769.172.323.297.738.375 1.244h.674l-.174-3.342h-11.129v.722c.412.025.745.066 1 .123.258.057.454.165.589.323.134.158.225.373.27.645.045.273.067.63.067 1.073v8.849c0 .443-.025.803-.078 1.081-.05.279-.153.494-.306.646-.156.152-.37.26-.646.323-.277.064-.639.101-1.088.114v.721h11.956l.289-3.74h-.732c-.128.557-.289 1.022-.481 1.396-.192.373-.45.673-.77.901-.32.228-.72.39-1.193.485-.476.094-1.053.142-1.733.142a9.32 9.32 0 0 1-1.521-.105c-.412-.07-.741-.19-.992-.36a1.375 1.375 0 0 1-.53-.665c-.102-.272-.153-.617-.153-1.035v-4.291c.718 0 1.311.048 1.78.142.468.096.84.235 1.117.418.276.184.468.415.577.693.11.279.164.608.164.988h.674v-5.184h-.674c0 .38-.061.71-.183.987-.122.28-.32.507-.596.684-.277.178-.649.307-1.118.39-.468.082-1.049.123-1.741.123v-5.45zM264.128 130v-11.354c0-.583.026-1.05.077-1.406.052-.354.154-.626.308-.816.154-.19.369-.32.646-.389.276-.07.638-.11 1.087-.123v-.722h-5.179v.722c.411.013.74.05.992.114.25.064.443.196.578.398.134.203.224.491.27.864.044.373.066.871.066 1.49v7.482h-.077l-8.413-11.07h-3.813v.722c.411.025.744.078 1.002.16.256.084.452.226.588.429.134.202.223.478.269.825.044.348.068.789.068 1.32v7.709c0 .595-.027 1.066-.077 1.415-.053.348-.156.617-.309.806-.154.19-.37.32-.645.39-.276.069-.639.11-1.087.123v.721h5.179v-.721a4.779 4.779 0 0 1-.992-.114.943.943 0 0 1-.578-.399c-.134-.202-.224-.487-.27-.854a13.058 13.058 0 0 1-.067-1.5v-8.107h.077L262.973 130h1.155zm19.389-13.632c-.797-.481-1.534-.83-2.214-1.045a7.18 7.18 0 0 0-2.176-.323c-1.092 0-2.09.187-2.994.56a6.681 6.681 0 0 0-2.33 1.586 7.23 7.23 0 0 0-1.511 2.45c-.359.949-.539 2-.539 3.152 0 1.1.17 2.1.51 2.999.34.9.82 1.662 1.444 2.288a6.38 6.38 0 0 0 2.253 1.452c.878.343 1.864.513 2.954.513 1.913 0 3.543-.563 4.891-1.69l.443 1.5h.674v-4.728h-.79c-.706 2.595-2.298 3.893-4.774 3.893-1.631 0-2.876-.547-3.735-1.642-.86-1.096-1.29-2.662-1.29-4.7 0-1.037.111-1.967.336-2.79.224-.824.548-1.52.973-2.089a4.274 4.274 0 0 1 1.56-1.31c.615-.304 1.314-.456 2.098-.456 1.141 0 2.118.315 2.926.948.809.634 1.353 1.508 1.637 2.62h.712l-.174-4.366h-.538l-.346 1.178zm11.378-.038c0-.216.108-.324.327-.324h2.445c.654 0 1.213.038 1.675.114.462.077.843.21 1.146.399.301.19.539.446.712.769.173.323.299.738.375 1.244h.674l-.173-3.342h-11.129v.722c.411.025.745.066 1.002.123.256.057.452.165.587.323.134.158.224.373.269.645.045.273.068.63.068 1.073v8.849c0 .443-.026.803-.077 1.081-.052.279-.155.494-.308.646-.155.152-.37.26-.645.323-.276.064-.638.101-1.088.114v.721h11.956l.289-3.74h-.732c-.128.557-.288 1.022-.48 1.396a2.49 2.49 0 0 1-.77.901c-.323.228-.72.39-1.195.485-.475.094-1.052.142-1.733.142a9.32 9.32 0 0 1-1.52-.105c-.412-.07-.742-.19-.992-.36a1.381 1.381 0 0 1-.53-.665c-.103-.272-.153-.617-.153-1.035v-4.291c.719 0 1.312.048 1.78.142.47.096.84.235 1.118.418.275.184.467.415.577.693.108.279.163.608.163.988h.675v-5.184h-.675c0 .38-.06.71-.183.987-.123.28-.321.507-.597.684-.275.178-.648.307-1.115.39-.47.082-1.05.123-1.743.123v-5.45z"></path></g></svg>